<?xml version="1.0" encoding="UTF-8" standalone="no"?>
<!-- Created with Inkscape (http://www.inkscape.org/) -->

<svg
   xmlns:dc="http://purl.org/dc/elements/1.1/"
   xmlns:cc="http://creativecommons.org/ns#"
   xmlns:rdf="http://www.w3.org/1999/02/22-rdf-syntax-ns#"
   xmlns:svg="http://www.w3.org/2000/svg"
   xmlns="http://www.w3.org/2000/svg"
   xmlns:sodipodi="http://sodipodi.sourceforge.net/DTD/sodipodi-0.dtd"
   xmlns:inkscape="http://www.inkscape.org/namespaces/inkscape"
   width="210mm"
   height="297mm"
   viewBox="0 0 210 297"
   version="1.1"
   id="svg8"
   inkscape:version="0.92.3 (2405546, 2018-03-11)"
   sodipodi:docname="renato_sindico.svg"
   inkscape:export-filename="/home/lucio/Pictures/renato.png"
   inkscape:export-xdpi="96"
   inkscape:export-ydpi="96">
  <defs
     id="defs2">
    <inkscape:perspective
       sodipodi:type="inkscape:persp3d"
       inkscape:vp_x="0 : 148.5 : 1"
       inkscape:vp_y="0 : 1000 : 0"
       inkscape:vp_z="210 : 148.5 : 1"
       inkscape:persp3d-origin="105 : 99 : 1"
       id="perspective9094" />
    <inkscape:path-effect
       effect="bspline"
       id="path-effect3752"
       is_visible="true"
       weight="33.333333"
       steps="2"
       helper_size="0"
       apply_no_weight="true"
       apply_with_weight="true"
       only_selected="false" />
    <clipPath
       id="clipPath4609"
       clipPathUnits="userSpaceOnUse">
      <path
         inkscape:connector-curvature="0"
         id="path4607"
         d="M 0,0 H 800 V 800 H 0 Z" />
    </clipPath>
    <radialGradient
       id="radialGradient4621"
       spreadMethod="pad"
       gradientTransform="matrix(400,0,0,-400,400,400)"
       gradientUnits="userSpaceOnUse"
       r="1"
       cy="0"
       cx="0"
       fy="0"
       fx="0">
      <stop
         id="stop4615"
         offset="0"
         style="stop-opacity:1;stop-color:#f7f7f8" />
      <stop
         id="stop4617"
         offset="0.7162082"
         style="stop-opacity:1;stop-color:#f7f7f8" />
      <stop
         id="stop4619"
         offset="1"
         style="stop-opacity:1;stop-color:#edeff1" />
    </radialGradient>
    <clipPath
       id="clipPath4631"
       clipPathUnits="userSpaceOnUse">
      <path
         inkscape:connector-curvature="0"
         id="path4629"
         d="M 0,800 H 800 V 0 H 0 Z" />
    </clipPath>
    <clipPath
       id="clipPath6868"
       clipPathUnits="userSpaceOnUse">
      <path
         inkscape:connector-curvature="0"
         id="path6866"
         d="M 0,0 H 800 V 800 H 0 Z" />
    </clipPath>
    <radialGradient
       id="radialGradient6880"
       spreadMethod="pad"
       gradientTransform="matrix(400,0,0,-400,400,400)"
       gradientUnits="userSpaceOnUse"
       r="1"
       cy="0"
       cx="0"
       fy="0"
       fx="0">
      <stop
         id="stop6874"
         offset="0"
         style="stop-opacity:1;stop-color:#f7f7f8" />
      <stop
         id="stop6876"
         offset="0.7162082"
         style="stop-opacity:1;stop-color:#f7f7f8" />
      <stop
         id="stop6878"
         offset="1"
         style="stop-opacity:1;stop-color:#edeff1" />
    </radialGradient>
    <clipPath
       id="clipPath6890"
       clipPathUnits="userSpaceOnUse">
      <path
         inkscape:connector-curvature="0"
         id="path6888"
         d="M 0,800 H 800 V 0 H 0 Z" />
    </clipPath>
  </defs>
  <sodipodi:namedview
     id="base"
     pagecolor="#ffffff"
     bordercolor="#666666"
     borderopacity="1.0"
     inkscape:pageopacity="0.0"
     inkscape:pageshadow="2"
     inkscape:zoom="0.49497475"
     inkscape:cx="-544.17838"
     inkscape:cy="656.74867"
     inkscape:document-units="mm"
     inkscape:current-layer="layer1"
     showgrid="false"
     showguides="false"
     inkscape:window-width="1920"
     inkscape:window-height="1013"
     inkscape:window-x="0"
     inkscape:window-y="0"
     inkscape:window-maximized="1">
    <inkscape:grid
       type="xygrid"
       id="grid3742" />
  </sodipodi:namedview>
  <metadata
     id="metadata5">
    <rdf:RDF>
      <cc:Work
         rdf:about="">
        <dc:format>image/svg+xml</dc:format>
        <dc:type
           rdf:resource="http://purl.org/dc/dcmitype/StillImage" />
        <dc:title></dc:title>
      </cc:Work>
    </rdf:RDF>
  </metadata>
  <g
     inkscape:label="Layer 1"
     inkscape:groupmode="layer"
     id="layer1">
    <text
       xml:space="preserve"
       style="font-style:normal;font-weight:normal;font-size:32.82416153px;line-height:1.25;font-family:sans-serif;letter-spacing:0px;word-spacing:0px;fill:#000000;fill-opacity:1;stroke:none;stroke-width:0.82060403"
       x="16.242565"
       y="159.67366"
       id="text3726"
       transform="scale(0.97788456,1.0226156)"><tspan
         sodipodi:role="line"
         id="tspan3724"
         x="16.242565"
         y="159.67366"
         style="stroke-width:0.82060403">HORTÊNSIA</tspan></text>
    <text
       xml:space="preserve"
       style="font-style:normal;font-variant:normal;font-weight:normal;font-stretch:normal;font-size:34.34558487px;line-height:1.25;font-family:sans-serif;-inkscape-font-specification:sans-serif;letter-spacing:0px;word-spacing:0px;fill:#000000;fill-opacity:1;stroke:none;stroke-width:0.85863942"
       x="87.335732"
       y="120.45531"
       id="text3730"
       transform="scale(1.0735966,0.93144855)"><tspan
         sodipodi:role="line"
         id="tspan3728"
         x="87.335732"
         y="120.45531"
         style="font-style:normal;font-variant:normal;font-weight:normal;font-stretch:normal;font-family:Symbola;-inkscape-font-specification:Symbola;stroke-width:0.85863942">H</tspan></text>
    <text
       xml:space="preserve"
       style="font-style:normal;font-weight:normal;font-size:7.94720507px;line-height:1.25;font-family:sans-serif;letter-spacing:0px;word-spacing:0px;fill:#000000;fill-opacity:1;stroke:none;stroke-width:0.19868009"
       x="31.66077"
       y="172.57896"
       id="text3734"
       transform="scale(0.99351948,1.0065228)"><tspan
         sodipodi:role="line"
         id="tspan3732"
         x="31.66077"
         y="172.57896"
         style="stroke-width:0.19868009">RESIDENCIAL JARDIM DAS HORTÊNSIAS</tspan></text>
    <rect
       id="rect3738"
       width="155.7388"
       height="1.3818737"
       x="28.546419"
       y="129.54044"
       style="stroke-width:0.32260588" />
    <rect
       style="stroke-width:0.26301259"
       y="176.72778"
       x="54.914192"
       height="1.3818737"
       width="103.51549"
       id="rect3740" />
    <path
       style="fill:none;stroke:#000000;stroke-width:1.9498564;stroke-linecap:butt;stroke-linejoin:miter;stroke-miterlimit:4;stroke-dasharray:none;stroke-opacity:1"
       d="m 93.062924,88.05877 c 6.677232,-7.274048 20.031366,-7.219763 26.952556,0.05429 6.92119,7.274051 7.40974,21.76787 0.7327,29.04239 -6.67705,7.27452 -20.51919,7.3288 -27.440838,0.0543 -6.921649,-7.27452 -6.92165,-21.876919 -0.244418,-29.150967 z"
       id="path3750"
       inkscape:connector-curvature="0"
       inkscape:path-effect="#path-effect3752"
       inkscape:original-d="m 86.385691,80.730436 c 13.354466,0.05396 26.708599,0.108241 40.062429,0.162854 0.48888,14.493807 0.97744,28.98763 1.46568,43.48239 -13.84267,0.054 -27.68481,0.10821 -41.528106,0.16286 3.22e-4,-14.60332 3.21e-4,-29.205722 -3e-6,-43.808104 z"
       sodipodi:nodetypes="ccccc" />
    <path
       style="fill:none;stroke:#000000;stroke-width:2.31545448;stroke-linecap:butt;stroke-linejoin:miter;stroke-miterlimit:4;stroke-dasharray:none;stroke-opacity:1"
       d="m 36.714803,122.58427 c 0,0 0.04072,-1.50641 -0.04072,-1.99498 -0.08144,-0.48857 -0.895705,-1.4657 -1.424986,-1.62856 -0.529279,-0.16284 -1.913549,-0.3257 -2.03569,-0.285 -0.122142,0.0407 0,8.18349 0,8.18349 l 145.144853,-0.6107 c 0,0 1.42499,-0.81428 1.79141,-1.83212 0.36643,-1.01785 0.32571,-4.23424 0.20358,-4.51925 -0.12215,-0.28499 -0.73286,-1.09926 -2.03571,-1.1807 -1.30283,-0.0814 -1.38426,0 -1.38426,0 l -0.16286,4.35638 v -0.24428"
       id="path4561"
       inkscape:connector-curvature="0" />
    <path
       style="fill:#000000;fill-opacity:1;stroke:none;stroke-width:0.3224372px;stroke-linecap:butt;stroke-linejoin:miter;stroke-opacity:1"
       d="m 54.628895,119.89715 c 0,0 0.284995,-1.91355 -1.343557,-1.58783 -1.628553,0.32571 -1.4657,2.64639 -0.936419,2.76854 0.52928,0.12213 0.652366,1.32309 4.64138,0.48856 1.739037,-0.36382 3.435502,-2.33856 3.582815,-4.80423 0.147315,-2.46566 -1.139986,-6.51423 -4.397094,-7.6542 -3.257107,-1.13999 -7.369207,1.01784 -9.038474,3.13496 -1.669266,2.11712 -2.809256,7.53207 -0.24428,11.35917 2.564971,3.82709 6.14779,3.09425 7.532057,3.09425 1.384272,0 4.641381,-0.20357 6.554929,-2.32069 1.913552,-2.11712 4.030671,-4.80423 4.030671,-4.80423 0,0 0.403398,2.91163 1.136249,3.92948 0.732848,1.01786 2.161576,2.5033 4.319408,3.15473 2.157834,0.65142 3.817563,0.14638 5.644404,-1.33657 1.03812,-0.8427 2.08544,-3.59885 1.449683,-6.10624 -0.716354,-2.82527 -1.843201,-4.39589 -3.634611,-4.27375 -1.791409,0.12214 -3.908529,1.62854 -3.704958,3.21639 0.203568,1.58784 0.814276,2.80925 1.954263,1.66927 1.13999,-1.14 1.669268,-4.23424 2.72783,-2.56498 1.058557,1.66928 1.872836,4.3971 0.732846,5.74065 -1.139986,1.34356 -2.692899,2.66413 -3.8736,2.13484 -5.522208,-1.89911 -5.169991,-7.91037 -3.127981,-10.36806 2.483543,-2.89068 8.468478,-5.12994 9.527039,-4.80422 1.058561,0.32569 5.211371,1.87283 7.165637,4.31566 1.954263,2.44282 5.08923,6.63635 7.369205,7.85777 2.279976,1.22141 4.519235,2.60568 6.758497,2.27998 2.239266,-0.32572 3.582816,-0.0814 4.274956,-0.89571 0.69214,-0.81427 -3.46068,-2.40213 -4.926377,-2.3207 -1.465698,0.0814 -2.646399,1.01785 -4.234238,-0.28499 -1.587841,-1.30284 -5.374227,-5.12994 -6.14779,-6.43279 -0.773565,-1.30284 -1.455469,-1.4957 -1.158052,-2.60568 0.733096,-2.73595 0.713091,-3.11316 0.794519,-4.90456 0.08144,-1.79142 -0.219584,-6.96054 -0.667437,-4.68054 -0.447851,2.27996 -0.801157,8.89297 -3.121844,7.63084 -2.32069,-1.26213 -1.872837,-1.34357 -4.15281,-3.05354 -2.279976,-1.70998 -4.112101,-2.23926 -4.112101,-4.47852 0,-2.23927 2.279977,-4.722817 4.152815,-4.804247 1.872834,-0.08141 2.239259,-0.366428 2.483543,2.035699 0.244281,2.402118 -2.035693,3.704968 -3.338536,2.809258 -1.302843,-0.8957 0.20357,-0.97714 0.325711,-2.15784 0.12214,-1.180702 -0.692134,-1.628553 -1.791409,-1.139984 0,0 -1.506412,1.750684 -0.20357,4.234244 1.547128,1.13998 3.012825,1.26213 4.559949,0.57 1.547127,-0.69213 2.646403,-2.52427 2.361408,-4.559956 -0.510628,-5.361694 -4.516853,-6.35024 -8.26272,-3.702001 -1.174973,0.866529 -2.377508,2.683758 -2.567166,3.905561 -0.32571,2.320686 1.017848,5.333526 1.994977,6.962066 -3.867857,1.90641 -8.234974,4.38518 -11.155591,8.46849 -1.587839,2.23926 -2.859626,5.18031 -6.717784,9.03846 -2.157834,1.14 -6.229216,1.34355 -7.817059,-0.36642 -1.587838,-1.70998 -4.722803,-8.2242 -1.017846,-10.50417 4.57931,-3.58358 8.323138,-1.858 9.139982,0.75205 0.887033,2.83432 -1.436734,6.71162 -3.521468,5.96574 -3e-6,0 -10e-7,-1e-5 -10e-7,-1e-5 z"
       id="path9160"
       inkscape:connector-curvature="0"
       sodipodi:nodetypes="cscsssssscccsssccccccccsssccscscsscscssccccccccccccscc" />
    <path
       sodipodi:nodetypes="cscsssssscccsssccccccccsssccscscsscscssccccccccccccscc"
       inkscape:connector-curvature="0"
       id="path9162"
       d="m 159.05226,119.89715 c 0,0 -0.285,-1.91355 1.34355,-1.58783 1.62855,0.32571 1.4657,2.64639 0.93642,2.76854 -0.52928,0.12213 -0.65236,1.32309 -4.64138,0.48856 -1.73904,-0.36382 -3.4355,-2.33856 -3.58281,-4.80423 -0.14733,-2.46566 1.13999,-6.51423 4.39709,-7.6542 3.2571,-1.13999 7.36921,1.01784 9.03848,3.13496 1.66927,2.11712 2.80925,7.53207 0.24428,11.35917 -2.56497,3.82709 -6.14779,3.09425 -7.53206,3.09425 -1.38427,0 -4.64138,-0.20357 -6.55493,-2.32069 -1.91356,-2.11712 -4.03068,-4.80423 -4.03068,-4.80423 0,0 -0.4034,2.91163 -1.13625,3.92948 -0.73284,1.01786 -2.16157,2.5033 -4.31941,3.15473 -2.15783,0.65142 -3.81756,0.14638 -5.64441,-1.33657 -1.03813,-0.8427 -2.08544,-3.59885 -1.44968,-6.10624 0.71636,-2.82527 1.8432,-4.39589 3.63461,-4.27375 1.79142,0.12214 3.90854,1.62854 3.70497,3.21639 -0.20358,1.58784 -0.81428,2.80925 -1.95427,1.66927 -1.13999,-1.14 -1.66927,-4.23424 -2.72784,-2.56498 -1.05855,1.66928 -1.87283,4.3971 -0.73283,5.74065 1.13997,1.34356 2.6929,2.66413 3.87359,2.13484 5.52221,-1.89911 5.17,-7.91037 3.12799,-10.36806 -2.48355,-2.89068 -8.46849,-5.12994 -9.52705,-4.80422 -1.05856,0.32569 -5.21137,1.87283 -7.16564,4.31566 -1.95426,2.44282 -5.08923,6.63635 -7.36921,7.85777 -2.27998,1.22141 -4.51924,2.60568 -6.7585,2.27998 -2.23926,-0.32572 -3.58282,-0.0814 -4.27496,-0.89571 -0.69214,-0.81427 3.46069,-2.40213 4.92639,-2.3207 1.46569,0.0814 2.6464,1.01785 4.23422,-0.28499 1.58785,-1.30284 5.37424,-5.12994 6.14781,-6.43279 0.77356,-1.30284 1.45547,-1.4957 1.15805,-2.60568 -0.73309,-2.73595 -0.7131,-3.11316 -0.79452,-4.90456 -0.0814,-1.79142 0.21958,-6.96054 0.66744,-4.68054 0.44785,2.27996 0.80115,8.89297 3.12184,7.63084 2.3207,-1.26213 1.87284,-1.34357 4.15282,-3.05354 2.27996,-1.70998 4.11211,-2.23926 4.11211,-4.47852 0,-2.23927 -2.27998,-4.722817 -4.15282,-4.804247 -1.87284,-0.08141 -2.23927,-0.366428 -2.48355,2.035699 -0.24427,2.402118 2.03569,3.704968 3.33854,2.809258 1.30284,-0.8957 -0.20358,-0.97714 -0.32572,-2.15784 -0.12213,-1.180702 0.69214,-1.628553 1.7914,-1.139984 0,0 1.50643,1.750684 0.20359,4.234244 -1.54713,1.13998 -3.01284,1.26213 -4.55997,0.57 -1.54712,-0.69213 -2.6464,-2.52427 -2.3614,-4.559956 0.51063,-5.361694 4.51686,-6.35024 8.26273,-3.702001 1.17498,0.866529 2.37752,2.683758 2.56716,3.905561 0.32571,2.320686 -1.01783,5.333526 -1.99498,6.962066 3.86787,1.90641 8.23498,4.38518 11.1556,8.46849 1.58784,2.23926 2.85963,5.18031 6.71779,9.03846 2.15784,1.14 6.22922,1.34355 7.81707,-0.36642 1.58783,-1.70998 4.7228,-8.2242 1.01784,-10.50417 -4.57931,-3.58358 -8.32315,-1.858 -9.13999,0.75205 -0.88702,2.83432 1.43674,6.71162 3.52148,5.96574 0,0 0,-1e-5 0,-1e-5 z"
       style="fill:#000000;fill-opacity:1;stroke:none;stroke-width:0.3224372px;stroke-linecap:butt;stroke-linejoin:miter;stroke-opacity:1" />
    <path
       style="fill:#000000;fill-opacity:1;stroke:none;stroke-width:0.3224372px;stroke-linecap:butt;stroke-linejoin:miter;stroke-opacity:1"
       d="m 106.90547,196.03205 c -0.97713,-0.57001 -1.95427,0.40713 -3.58282,-2.93141 -1.62855,-3.33853 -2.36141,-4.31566 -3.01282,-7.89847 -0.651424,-3.58283 -0.11681,-4.55996 -1.465701,-4.55996 -2.768541,-0.48856 -7.9392,-0.52928 -14.127704,-0.73285 -6.880638,-0.0406 -20.96763,-0.3257 -22.677611,0.16289 -0.811044,0.23172 -1.915224,0.65566 -2.332687,2.19682 -0.462704,1.70819 -0.173875,4.5652 0.296996,5.2073 2.35708,3.6562 8.177084,0.56913 7.328491,-2.43704 -0.277178,-0.98191 -2.11712,-1.79141 -2.524258,-1.22141 -2.134479,2.06702 1.077616,3.73545 -0.45893,3.86252 -4.671015,0.38629 -2.86938,-3.8271 -2.460122,-4.76329 0.938051,-2.14581 6.915227,-1.57983 10.36015,-1.55298 5.332688,0.0275 9.353331,0.18202 14.625804,0.2552 4.315667,-0.0407 8.140964,0.19129 9.20133,0.24428 1.234333,0.0616 1.978611,1.18505 2.03569,1.95427 0.119953,1.61645 1.595822,5.2468 2.727832,7.73563 0.78753,1.73147 1.39212,3.5873 2.80926,4.96708 1.41712,1.37979 0.95882,0.8985 -0.20357,0.97712 -2.96024,0.20026 -7.222571,-0.39725 -9.404904,-0.97712 -1.076383,-0.286 -5.222877,-2.02935 -5.714812,-4.06775 -0.946487,-2.90758 -0.58857,-6.03572 1.068818,-7.58137 1.811042,-1.68895 5.576565,-0.79384 7.228911,1.61399 0.598109,1.00666 1.196598,3.61114 -0.295721,4.59047 -1.149414,0.75429 -3.787533,1.63022 -4.282674,0.42016 -0.696533,-2.20365 -2.59824,-1.5531 -1.754031,1.50043 0.666119,1.16135 5.578684,0.42474 7.012959,-0.50082 1.527179,-0.98552 1.896998,-2.82578 1.866491,-3.46645 -0.08144,-1.70998 -1.628556,-4.47853 -2.646401,-5.25209 -0.991702,-0.7537 -1.91355,-1.66927 -4.030671,-1.50641 -2.117119,0.16285 -4.071381,0.24428 -5.2928,2.3614 -1.221414,2.11712 -0.854988,5.0078 -0.854988,5.0078 -0.682707,-1.50759 -2.773694,-3.90323 -4.23967,-5.05281 -1.856776,-1.45604 -3.227498,-1.42971 -5.165227,-0.76926 -2.198549,0.81427 -3.257112,2.23925 -3.175684,4.27494 0.08144,2.03569 0.130679,3.43377 2.239262,4.03068 1.852984,0.52455 2.611178,0.10724 3.562463,-0.99749 0.356345,-0.41381 0.262492,-1.1697 0.309567,-1.72829 0.07472,-0.88665 -0.268982,-1.70279 -0.81849,-1.75274 -0.895705,-0.0814 -1.201058,0.59035 -1.078915,2.68711 -0.04072,1.01785 -2.748186,0.32571 -2.503903,-1.62856 0,-2.83387 2.573349,-4.16065 4.417487,-3.44876 1.948952,0.75235 3.188156,3.64843 3.725283,4.34447 4.393839,7.14416 4.715246,8.37616 12.702717,10.2599 1.373965,0.29681 7.002783,-0.2443 8.794203,-0.40714 0.996,-0.0905 -2.42525,3.27204 -1.17248,5.22125 1.00044,1.55657 2.76519,2.35152 3.12674,2.35152 0.20375,0 2.45275,-1.85336 -0.72007,-1.34837 -0.71339,0.11358 -1.28854,-1.31123 -1.30024,-2.30695 -0.0159,-1.34848 1.17338,-1.93216 1.52118,-3.23107 0.42594,-1.59075 0.66198,-3.9435 0.66198,-3.9435 z"
       id="path9166"
       inkscape:connector-curvature="0"
       sodipodi:nodetypes="csccccscscssccssazsscscsccscscccsccssscccscccssssscc" />
    <path
       sodipodi:nodetypes="csccccscscssccssazsscscsccscscccsccssscccscccssssscc"
       inkscape:connector-curvature="0"
       id="path9168"
       d="m 105.73909,196.03205 c 0.97714,-0.57001 1.95427,0.40713 3.58281,-2.93141 1.62856,-3.33853 2.36141,-4.31566 3.01284,-7.89847 0.65142,-3.58283 0.11675,-4.55996 1.46569,-4.55996 2.76855,-0.48856 7.93921,-0.52928 14.12771,-0.73285 6.88064,-0.0406 20.96765,-0.3257 22.67764,0.16289 0.81103,0.23172 1.91522,0.65566 2.33268,2.19682 0.4627,1.70819 0.17387,4.5652 -0.297,5.2073 -2.35708,3.6562 -8.17709,0.56913 -7.3285,-2.43704 0.27718,-0.98191 2.11712,-1.79141 2.52426,-1.22141 2.13449,2.06702 -1.07761,3.73545 0.45894,3.86252 4.67102,0.38629 2.86938,-3.8271 2.46012,-4.76329 -0.93805,-2.14581 -6.91523,-1.57983 -10.36016,-1.55298 -5.33268,0.0275 -9.35333,0.18202 -14.62581,0.2552 -4.31567,-0.0407 -8.14097,0.19129 -9.20133,0.24428 -1.23434,0.0616 -1.97861,1.18505 -2.0357,1.95427 -0.11991,1.61645 -1.59582,5.2468 -2.72782,7.73563 -0.78755,1.73147 -1.39214,3.5873 -2.80927,4.96708 -1.41712,1.37979 -0.95882,0.8985 0.20358,0.97712 2.96024,0.20026 7.22256,-0.39725 9.4049,-0.97712 1.07638,-0.286 5.22289,-2.02935 5.71481,-4.06775 0.9465,-2.90758 0.58858,-6.03572 -1.06882,-7.58137 -1.81103,-1.68895 -5.57656,-0.79384 -7.22891,1.61399 -0.59812,1.00666 -1.1966,3.61114 0.29572,4.59047 1.14942,0.75429 3.78754,1.63022 4.28268,0.42016 0.69652,-2.20365 2.59823,-1.5531 1.75403,1.50043 -0.66612,1.16135 -5.5787,0.42474 -7.01296,-0.50082 -1.52719,-0.98552 -1.897,-2.82578 -1.8665,-3.46645 0.0814,-1.70998 1.62856,-4.47853 2.64641,-5.25209 0.99169,-0.7537 1.91355,-1.66927 4.03066,-1.50641 2.11712,0.16285 4.07139,0.24428 5.29282,2.3614 1.22141,2.11712 0.85499,5.0078 0.85499,5.0078 0.68271,-1.50759 2.77369,-3.90323 4.23967,-5.05281 1.85677,-1.45604 3.22749,-1.42971 5.16523,-0.76926 2.19855,0.81427 3.2571,2.23925 3.17568,4.27494 -0.0814,2.03569 -0.13068,3.43377 -2.23926,4.03068 -1.85299,0.52455 -2.61118,0.10724 -3.56246,-0.99749 -0.35636,-0.41381 -0.2625,-1.1697 -0.30957,-1.72829 -0.0748,-0.88665 0.26897,-1.70279 0.81849,-1.75274 0.8957,-0.0814 1.20105,0.59035 1.07892,2.68711 0.0407,1.01785 2.74819,0.32571 2.50389,-1.62856 0,-2.83387 -2.57334,-4.16065 -4.41748,-3.44876 -1.94896,0.75235 -3.18816,3.64843 -3.72529,4.34447 -4.39384,7.14416 -4.71526,8.37616 -12.70273,10.2599 -1.37396,0.29681 -7.00279,-0.2443 -8.79419,-0.40714 -0.99601,-0.0905 2.42524,3.27204 1.17247,5.22125 -1.00043,1.55657 -2.76519,2.35152 -3.12674,2.35152 -0.20375,0 -2.45276,-1.85336 0.72006,-1.34837 0.7134,0.11358 1.28856,-1.31123 1.30024,-2.30695 0.0159,-1.34848 -1.17337,-1.93216 -1.52116,-3.23107 -0.42595,-1.59075 -0.66199,-3.9435 -0.66199,-3.9435 z"
       style="fill:#000000;fill-opacity:1;stroke:none;stroke-width:0.3224372px;stroke-linecap:butt;stroke-linejoin:miter;stroke-opacity:1" />
    <path
       style="fill:#000000;fill-opacity:1;stroke:none;stroke-width:0.3224372px;stroke-linecap:butt;stroke-linejoin:miter;stroke-opacity:1"
       d="m 85.750823,111.86145 c 0,0 -2.589228,-1.34809 -2.329989,-5.49998 0.268981,-4.30806 0.556883,-12.862809 3.172884,-16.898112 4.161853,-6.405445 7.565801,-8.572396 13.525972,-10.604163 4.50351,-1.535203 5.48576,-1.967532 7.81242,-1.629023 8.96206,1.303906 -2.75847,2.181642 -5.46508,2.904711 -3.463414,0.92525 -4.825771,1.475553 -9.552294,4.941204 -3.017436,2.212487 -3.970461,4.551412 -5.055009,6.689135 -1.851861,3.65016 -2.199638,7.602935 -2.541077,13.361868 -0.0991,1.2174 0.432173,6.73436 0.432173,6.73436 z"
       id="path9170"
       inkscape:connector-curvature="0"
       sodipodi:nodetypes="cscssssscc" />
    <path
       sodipodi:nodetypes="cscssssscc"
       inkscape:connector-curvature="0"
       id="path9172"
       d="m 128.25072,111.86145 c 0,0 2.58924,-1.34809 2.32999,-5.49998 -0.26898,-4.30806 -0.55687,-12.862809 -3.17288,-16.898112 -4.16186,-6.405445 -7.56581,-8.572396 -13.526,-10.604163 -4.50349,-1.535203 -5.48574,-1.967532 -7.81239,-1.629023 -8.962075,1.303906 2.75847,2.181642 5.46508,2.904711 3.46341,0.92525 4.82575,1.475553 9.55228,4.941204 3.01745,2.212487 3.97047,4.551412 5.05502,6.689135 1.85186,3.65016 2.19964,7.602935 2.54107,13.361868 0.0991,1.2174 -0.43217,6.73436 -0.43217,6.73436 z"
       style="fill:#000000;fill-opacity:1;stroke:none;stroke-width:0.3224372px;stroke-linecap:butt;stroke-linejoin:miter;stroke-opacity:1" />
    <path
       style="fill:#000000;fill-opacity:1;stroke:none;stroke-width:0.3224372px;stroke-linecap:butt;stroke-linejoin:miter;stroke-opacity:1"
       d="m 103.80096,189.99743 2.70617,3.85773 0.28788,-1.95766 c -0.66437,-0.96359 -1.42052,-2.19358 -2.16518,-3.61304 -1.10867,-2.11328 -1.57786,-4.15631 -0.0492,-5.73291 1.13266,-1.09027 2.98791,-1.24255 4.10295,-0.24761 0.86743,0.82179 0.93488,2.84654 0.83148,4.14645 -0.14787,1.49093 -1.14066,3.25766 -2.90218,5.42102 -0.75837,0.93134 -0.0979,1.93362 -0.10578,1.98375 4.68097,-4.71539 5.37591,-8.88813 4.17521,-11.41702 -0.8079,-1.70159 -2.3515,-2.67007 -4.57826,-2.51688 -2.64041,0.67328 -3.58101,1.91362 -4.08805,3.85774 -0.23032,2.41828 0.63336,4.60625 1.78492,6.21843 z"
       id="path10668"
       inkscape:connector-curvature="0"
       sodipodi:nodetypes="cccscccscscccc" />
  </g>
</svg>
